<?xml version="1.0" encoding="UTF-8"?>
<svg id="Layer_1" data-name="Layer 1" xmlns="http://www.w3.org/2000/svg" viewBox="0 0 1430 230">
  <defs>
    <style>
      .cls-1 {
        fill: #f3b22f;
      }

      .cls-2 {
        fill: #083a59;
      }
    </style>
  </defs>
  <g>
    <path class="cls-2" d="M160.37,171.98c-12.43,6.21-26.55,9.95-41.11,9.95-40.37,0-66.2-27.18-66.2-62.43s26.37-61.89,64.58-61.89c14.36,0,28.71,3.74,41.18,9.84,5.96,2.92,12.92-1.42,12.92-8.06v-21.08c0-3.45-1.97-6.6-5.07-8.09-14.49-6.96-32.13-10.82-50.64-10.82C53.6,19.4,10,63.26,10,120.31s43.33,99.84,105.76,99.84c17.94,0,37.19-3.71,52.64-11.34,3.04-1.5,4.95-4.63,4.95-8.03v-20.77c0-6.67-7.01-11.01-12.98-8.03Z"/>
    <g>
      <path class="cls-2" d="M361.34,22.36h-24.83c-4.96,0-8.98,4.02-8.98,8.98v57.4c0,4.96-4.02,8.98-8.98,8.98h-66.27c-4.96,0-8.98-4.02-8.98-8.98V31.33c0-4.96-4.02-8.98-8.98-8.98h-24.83c-4.96,0-8.98,4.02-8.98,8.98v176.88c0,4.96,4.02,8.98,8.98,8.98h24.83c4.96,0,8.98-4.02,8.98-8.98v-64.12c0-4.96,4.02-8.98,8.98-8.98h66.27c4.96,0,8.98,4.02,8.98,8.98v64.12c0,4.96,4.02,8.98,8.98,8.98h24.83c4.96,0,8.98-4.02,8.98-8.98V31.33c0-4.96-4.02-8.98-8.98-8.98Z"/>
      <path class="cls-2" d="M520.1,179.78h-62.5c-4.96,0-8.98-4.02-8.98-8.98v-26.71c0-4.96,4.02-8.98,8.98-8.98h48.78c4.96,0,8.98-4.02,8.98-8.98v-18.1c0-4.96-4.02-8.98-8.98-8.98h-48.78c-4.96,0-8.98-4.02-8.98-8.98v-21.33c0-4.96,4.02-8.98,8.98-8.98h59.55c4.96,0,8.98-4.02,8.98-8.98v-19.45c0-4.96-4.02-8.98-8.98-8.98h-102.33c-4.96,0-8.98,4.02-8.98,8.98v176.88c0,4.96,4.02,8.98,8.98,8.98h105.29c4.96,0,8.98-4.02,8.98-8.98v-19.45c0-4.96-4.02-8.98-8.98-8.98Z"/>
      <path class="cls-2" d="M695.32,171.98c-12.43,6.21-26.55,9.95-41.11,9.95-40.36,0-66.2-27.18-66.2-62.43s26.37-61.89,64.58-61.89c14.35,0,28.71,3.74,41.17,9.84,5.96,2.92,12.92-1.42,12.92-8.06v-21.08c0-3.45-1.97-6.6-5.07-8.09-14.49-6.96-32.13-10.82-50.63-10.82-62.43,0-106.02,43.86-106.02,100.91s43.33,99.84,105.76,99.84c17.94,0,37.19-3.71,52.64-11.34,3.05-1.5,4.95-4.63,4.95-8.03v-20.77c0-6.67-7.01-11.01-12.98-8.03Z"/>
      <path class="cls-2" d="M827.88,121.1c-2.59-3.29-2.55-7.94.08-11.19l59.01-72.92c4.75-5.87.57-14.63-6.98-14.63h-27.13c-2.76,0-5.37,1.27-7.07,3.45l-67,85.63-.54-.27V31.33c0-4.96-4.02-8.98-8.98-8.98h-24.83c-4.96,0-8.98,4.02-8.98,8.98v176.88c0,4.96,4.02,8.98,8.98,8.98h24.83c4.96,0,8.98-4.02,8.98-8.98v-86.02l.54-.27,69.42,91.7c1.7,2.24,4.35,3.56,7.16,3.56h29.54c7.49,0,11.69-8.63,7.06-14.52l-64.09-81.57Z"/>
      <rect class="cls-2" x="916.83" y="22.36" width="42.79" height="194.83" rx="8.98" ry="8.98"/>
      <path class="cls-2" d="M1067.79,22.36h-63.68c-4.96,0-8.98,4.02-8.98,8.98v176.88c0,4.96,4.02,8.98,8.98,8.98h63.95c29.06,0,54.36-9.42,72.66-27.45,18.3-18.03,28.26-42.52,28.26-69.97s-9.96-51.94-28.26-69.97c-18.3-18.03-43.86-27.45-72.93-27.45ZM1107.62,164.71c-11.57,10.23-26.64,15.07-43.6,15.07h-17.13c-4.96,0-8.98-4.02-8.98-8.98v-102.06c0-4.96,4.02-8.98,8.98-8.98h17.13c16.95,0,32.02,4.84,43.6,15.07,11.57,10.23,18.57,26.64,18.57,44.94s-7,34.71-18.57,44.94Z"/>
    </g>
    <path class="cls-2" d="M1347.1,119.04c0,.24.01.48.01.73,0,34.71-25.3,62.16-58.93,62.16s-58.93-27.45-58.93-62.16,25.29-62.16,58.93-62.16c10.4,0,19.99,2.65,28.3,7.31,9.03-9.99,18.62-20.6,27.16-30.04-15.77-9.82-34.7-15.48-55.46-15.48-57.86,0-101.72,43.59-101.72,100.37s43.86,100.38,101.72,100.38,101.72-43.6,101.72-100.38c0-14.73-2.98-28.55-8.36-40.96l-34.44,40.24Z"/>
  </g>
  <path class="cls-1" d="M1416.04,9.85s-33.65.53-34.68.9c-2.39.82-3.39,2.26-3.91,2.98-.14.14-86.49,95.69-86.93,96.21-.72.86-1.62,1.28-2.53,1.32-.91-.04-1.81-.46-2.53-1.32-1.45-1.74-11.72-15.68-13.67-18.38-.75-1.04-2.52-3.6-8.06-3.6l-13.66-.13c-4.57,6.3-7.75,13.86-9.13,22.26l44.12,57.82c.78,1.11,1.86,1.66,2.93,1.66,1.07,0,2.15-.56,2.93-1.66l128.05-149.63c2.3-3.25.49-8.44-2.93-8.44Z"/>
</svg>