<?xml version="1.0" encoding="UTF-8"?>
<svg id="Layer_1" data-name="Layer 1" xmlns="http://www.w3.org/2000/svg" xmlns:xlink="http://www.w3.org/1999/xlink" viewBox="0 0 500 500">
  <defs>
    <style>
      .cls-1 {
        fill: url(#radial-gradient);
      }

      .cls-2 {
        fill: url(#linear-gradient);
      }

      .cls-3 {
        fill: #fff;
        stroke: #fff;
        stroke-miterlimit: 10;
        stroke-width: 25px;
      }
    </style>
    <radialGradient id="radial-gradient" cx="250" cy="250" fx="250" fy="250" r="240" gradientUnits="userSpaceOnUse">
      <stop offset=".07" stop-color="#1389a7"/>
      <stop offset=".51" stop-color="#1287a5"/>
      <stop offset=".66" stop-color="#11809e"/>
      <stop offset=".78" stop-color="#107493"/>
      <stop offset=".87" stop-color="#0d6382"/>
      <stop offset=".94" stop-color="#0a4d6d"/>
      <stop offset="1" stop-color="#083959"/>
    </radialGradient>
    <linearGradient id="linear-gradient" x1="192.58" y1="295.79" x2="436.58" y2="26.4" gradientUnits="userSpaceOnUse">
      <stop offset="0" stop-color="#f2b12f"/>
      <stop offset=".1" stop-color="#f2b12f" stop-opacity=".84"/>
      <stop offset=".26" stop-color="#f2b12f" stop-opacity=".58"/>
      <stop offset=".42" stop-color="#f2b12f" stop-opacity=".38"/>
      <stop offset=".57" stop-color="#f2b12f" stop-opacity=".21"/>
      <stop offset=".71" stop-color="#f2b12f" stop-opacity=".1"/>
      <stop offset=".83" stop-color="#f2b12f" stop-opacity=".03"/>
      <stop offset=".91" stop-color="#f2b12f" stop-opacity="0"/>
    </linearGradient>
  </defs>
  <path class="cls-3" d="M339.99,247.28c0,.37.02.74.02,1.12,0,53.24-38.8,95.34-90.38,95.34s-90.38-42.1-90.38-95.34,38.8-95.34,90.38-95.34c15.96,0,30.66,4.06,43.4,11.21,13.85-15.32,28.56-31.6,41.66-46.08-24.19-15.07-53.22-23.73-85.05-23.73-88.74,0-156.01,66.86-156.01,153.95s67.27,153.95,156.01,153.95,156.01-66.86,156.01-153.95c0-22.58-4.57-43.78-12.83-62.83l-52.81,61.71Z"/>
  <path class="cls-1" d="M446.87,112.73l16.19-18.92c3.48-4.93,1.03-12.64-3.93-13.35.78,2.63.53,5.76-1.2,8.21l-203.56,237.86c-1.25,1.76-2.95,2.64-4.66,2.65-1.71,0-3.41-.88-4.66-2.65l-70.14-91.91c2.2-13.35,7.25-25.37,14.52-35.39l21.72.2c8.81,0,11.62,4.07,12.81,5.72,3.1,4.3,19.42,26.45,21.73,29.22,1.14,1.37,2.57,2.04,4.02,2.11,1.45-.07,2.88-.74,4.02-2.11.7-.84,137.96-152.74,138.19-152.95.82-1.14,2.42-3.43,6.21-4.74.59-.21,7.96-.46,17.14-.69C372.23,35.11,314.05,10,250,10,117.45,10,10,117.45,10,250s107.45,240,240,240,240-107.45,240-240c0-51.05-15.95-98.37-43.13-137.27ZM250,409.56c-91.98,0-161.7-69.3-161.7-159.57S158.02,90.44,250,90.44c33,0,63.08,8.99,88.16,24.6-13.57,15.01-28.83,31.88-43.18,47.76-13.2-7.4-28.44-11.61-44.98-11.61-53.47,0-93.68,43.63-93.68,98.82s40.21,98.82,93.68,98.82,93.68-43.63,93.68-98.82c0-.39-.01-.77-.02-1.16l54.74-63.96c8.56,19.74,13.29,41.71,13.29,65.12,0,90.26-69.72,159.57-161.7,159.57Z"/>
  <path class="cls-2" d="M454.15,74.88s-53.57.84-55.21,1.43c-3.8,1.31-5.4,3.6-6.22,4.75-.23.22-137.68,152.33-138.38,153.17-1.14,1.37-2.58,2.04-4.03,2.11-1.45-.07-2.89-.74-4.03-2.11-2.31-2.78-18.65-24.96-21.76-29.27-1.19-1.66-4.01-5.73-12.83-5.73l-21.75-.2c-7.28,10.03-12.33,22.07-14.54,35.44l70.24,92.04c1.25,1.77,2.96,2.65,4.67,2.65,1.71,0,3.42-.88,4.67-2.65l203.85-238.2c3.66-5.17.78-13.44-4.67-13.44Z"/>
</svg>